<svg xmlns="http://www.w3.org/2000/svg" xmlns:xlink="http://www.w3.org/1999/xlink" id="Group_25" data-name="Group 25" width="251.128" height="32.364" viewBox="0 0 251.128 32.364"><defs><clipPath id="clip-path"><rect id="Rectangle_192" data-name="Rectangle 192" width="251.128" height="32.364" fill="none"></rect></clipPath></defs><g id="Group_24" data-name="Group 24" clip-path="url(#clip-path)"><path id="Path_21" data-name="Path 21" d="M954.71,21.3a4.13,4.13,0,1,1,8.258-.2v.2a4.129,4.129,0,1,1-8.258,0m.748,0a3.369,3.369,0,0,0,6.733.23V21.3a3.369,3.369,0,1,0-6.733-.23v.23m4.115.4,1.266,1.784-1.065.029-1.151-1.784h-.489v1.784h-.892V19.03h1.928a1.352,1.352,0,0,1,1.5,1.151v.2a1.261,1.261,0,0,1-1.093,1.324m-1.439-1.87v1.151h.978c.374,0,.662-.172.662-.575s-.288-.575-.662-.575Z" transform="translate(-711.84 -12.729)"></path><path id="Path_22" data-name="Path 22" d="M172.216,36.456c-.235-.282-.375-.423-.563-.423s-.352.118-.352.423V47.5a1.01,1.01,0,0,1-1.081,1.151h-1.245a1.041,1.041,0,0,1-1.127-1.175V34.342c0-1.1.7-1.669,2.138-1.669h2.255a2.062,2.062,0,0,1,1.786.846L183.87,44.89c.235.282.375.423.563.423s.33-.117.33-.423V33.824a1.016,1.016,0,0,1,1.1-1.151h1.245a1.035,1.035,0,0,1,1.1,1.175V46.981c0,1.1-.706,1.668-2.138,1.668h-2.256a2.063,2.063,0,0,1-1.786-.846Z" transform="translate(-125.148 -24.361)"></path><path id="Path_23" data-name="Path 23" d="M278.888,47.639c0,.681-.4,1.01-1.128,1.01H264.98c-1.926,0-3.007-.752-3.007-2.538v-10.9c0-1.786,1.081-2.537,2.983-2.537h12.593c.728,0,1.151.329,1.151,1.01v.658c0,.658-.424,1.01-1.128,1.01h-11.23c-.611,0-.893.235-.893.775v2.3c0,.517.282.776.87.776h10.619c.727,0,1.151.328,1.151,1.01V40.8c0,.682-.4,1.01-1.128,1.01H266.32c-.564,0-.87.235-.87.752V45.1c0,.541.259.8.893.8H277.76c.7,0,1.128.329,1.128,1.01Z" transform="translate(-195.33 -24.362)"></path><path id="Path_24" data-name="Path 24" d="M354.292,48.649h-1.456a1.658,1.658,0,0,1-1.293-.564l-5.591-5.38c-.212-.211-.353-.305-.494-.305s-.258.071-.47.282l-5.614,5.38a1.652,1.652,0,0,1-1.316.587H336.65c-.659,0-1.057-.329-1.057-.846a1.368,1.368,0,0,1,.517-.963l6.272-5.873a.552.552,0,0,0,0-.963l-5.662-5.5a1.451,1.451,0,0,1-.541-.963c0-.54.423-.87,1.081-.87h1.315a1.622,1.622,0,0,1,1.292.564l5.121,5.028c.236.235.376.282.494.282.14,0,.258-.07.493-.282l5.169-5a1.65,1.65,0,0,1,1.315-.587h1.292c.634,0,1.057.329,1.057.846a1.382,1.382,0,0,1-.493.963l-5.756,5.474a.723.723,0,0,0-.282.493.68.68,0,0,0,.282.493l6.273,5.873a1.451,1.451,0,0,1,.54.987c0,.517-.423.846-1.081.846" transform="translate(-250.221 -24.362)"></path><path id="Path_25" data-name="Path 25" d="M437.583,34.412c0,.658-.4,1.01-1.127,1.01h-5.4c-.611,0-.869.235-.869.752V47.5a1.01,1.01,0,0,1-1.081,1.151h-1.315a1.034,1.034,0,0,1-1.1-1.175V36.2c0-.54-.236-.775-.87-.775h-5.4c-.7,0-1.128-.329-1.128-1.01v-.729c0-.658.4-1.01,1.128-1.01h16.045c.7,0,1.127.329,1.127,1.01Z" transform="translate(-312.621 -24.361)"></path><path id="Path_26" data-name="Path 26" d="M511.469,32.673c4.675,0,6.108.94,6.108,3.947,0,1.645-.423,2.49-1.315,3.077-.376.235-.494.352-.494.494,0,.188.118.282.446.423,1.315.587,1.9,1.527,1.9,3.477,0,3.548-1.5,4.558-5.756,4.558H502.189c-1.926,0-3.007-.752-3.007-2.538v-10.9c0-1.786,1.081-2.538,2.983-2.538Zm-7.918,2.514c-.633,0-.893.212-.893.775v2.514c0,.517.259.775.87.775h8.293c1.692,0,2.373-.564,2.373-2.02,0-1.6-.634-2.044-2.607-2.044Zm8.528,6.437h-8.551c-.588,0-.87.211-.87.728v2.913c0,.541.236.8.893.8h8.222c2.42,0,2.937-.54,2.937-2.208,0-1.832-.634-2.232-2.631-2.232" transform="translate(-372.195 -24.361)"></path><path id="Path_27" data-name="Path 27" d="M597.254,32.673c5.1,0,6.344.987,6.344,4.722v.47c0,1.926-.658,2.843-1.9,3.477-.4.188-.517.305-.517.47,0,.188.14.282.446.423,1.362.54,1.95,1.386,1.95,3.97V47.5a1.016,1.016,0,0,1-1.1,1.151h-1.292A1.01,1.01,0,0,1,600.1,47.5v-.375c0-3.219-.517-3.713-4.981-3.713h-5.591c-.588,0-.869.235-.869.752V47.5a1.017,1.017,0,0,1-1.1,1.151h-1.269a1.027,1.027,0,0,1-1.1-1.151V35.211c0-1.786,1.081-2.538,2.983-2.538Zm-1.127,8.152c3.289,0,3.946-.541,3.946-2.514v-.352c0-2.3-.563-2.655-4.134-2.655h-6.367c-.635,0-.916.235-.916.775v3.97c0,.517.3.776.869.776Z" transform="translate(-436.315 -24.361)"></path><path id="Path_28" data-name="Path 28" d="M674.4,47.5a1.01,1.01,0,0,1-1.081,1.151h-1.292a1.041,1.041,0,0,1-1.127-1.174V33.825a1.016,1.016,0,0,1,1.1-1.151H673.3a1.035,1.035,0,0,1,1.1,1.175Z" transform="translate(-500.229 -24.362)"></path><path id="Path_29" data-name="Path 29" d="M701.713,48.649c-1.926,0-3.007-.752-3.007-2.538v-10.9c0-1.786,1.081-2.538,2.983-2.538h7.542c8.786,0,9.961.917,9.961,7.753v.47c0,6.743-1.151,7.753-9.961,7.753Zm1.41-13.25c-.611,0-.917.211-.917.775v8.88c0,.54.282.822.917.822h5.826c6.272,0,6.743-.587,6.743-5.1V40.5c0-4.675-.54-5.1-6.743-5.1Z" transform="translate(-520.962 -24.362)"></path><path id="Path_30" data-name="Path 30" d="M810.026,42.832c0,4.37-.658,5.591-8.176,5.591h-1.9c-8.317,0-9.8-1.127-9.8-7.729v-.681c0-6.672,1.527-7.8,9.75-7.8h3.43c5.38,0,6.086.282,6.086,1.48V34c0,.634-.446.963-1.1.963h-8.363c-5.827,0-6.3.517-6.3,5.122v.658c0,4.487.493,5.051,6.3,5.051h1.62c4.769,0,5.051-.258,5.051-2.185V42.456c0-.352-.188-.564-.657-.564H800.44c-.681,0-1.127-.282-1.127-.987v-.446c0-.681.446-.986,1.1-.986h7.518c1.5,0,2.092.587,2.092,1.738Z" transform="translate(-589.143 -24.018)"></path><path id="Path_31" data-name="Path 31" d="M897.681,47.639c0,.681-.4,1.01-1.128,1.01h-12.78c-1.926,0-3.007-.752-3.007-2.538v-10.9c0-1.786,1.081-2.537,2.984-2.537h12.593c.728,0,1.151.329,1.151,1.01v.658c0,.658-.424,1.01-1.128,1.01h-11.23c-.611,0-.893.235-.893.775v2.3c0,.517.282.776.87.776h10.619c.727,0,1.151.328,1.151,1.01V40.8c0,.682-.4,1.01-1.128,1.01H885.113c-.564,0-.87.235-.87.752V45.1c0,.541.259.8.893.8h11.418c.7,0,1.128.329,1.128,1.01Z" transform="translate(-656.707 -24.362)"></path><path id="Path_32" data-name="Path 32" d="M22.185,29.811H10.391A1.228,1.228,0,0,1,9.331,29.2L2.92,18.376H.056L7.427,31.143A2.442,2.442,0,0,0,9.54,32.364H24.4ZM9.54,0A2.44,2.44,0,0,0,7.427,1.219L0,14.084H2.94L9.234,3.16a1.219,1.219,0,0,1,1.055-.61h11.9L24.412,0ZM35.454,14.962l-7.333-12.7,0,0L26.081,4.6l.067.118,6.265,10.85a1.223,1.223,0,0,1,0,1.221L26.081,27.759,28.12,30.1l7.334-12.7a2.446,2.446,0,0,0,0-2.438"></path><path id="Path_33" data-name="Path 33" d="M29.343,35.555a2.418,2.418,0,0,0,0,2.417l3.8,6.585L35.1,42.314,32.24,37.369a1.21,1.21,0,0,1,0-1.21l2.855-4.945-1.949-2.244Zm5.408-7.881,2.155,2.48h5.055a1.211,1.211,0,0,1,1.048.605l2.934,4.95h3.238c-.025-.052-.052-.1-.081-.155l-3.892-6.742A2.418,2.418,0,0,0,43.114,27.6H35.329a2.443,2.443,0,0,0-.578.07m2.155,15.7-2.155,2.48a2.455,2.455,0,0,0,.578.069h7.785a2.417,2.417,0,0,0,2.094-1.209L49.1,37.973a2.044,2.044,0,0,0,.1-.2H45.97l-2.963,5a1.205,1.205,0,0,1-1.044.6Z" transform="translate(-21.637 -20.583)"></path><path id="Path_34" data-name="Path 34" d="M62.115,53.666H59.194l-1.46,2.53,1.46,2.529h2.921l1.46-2.529Z" transform="translate(-43.047 -40.014)"></path></g></svg>